<?xml version="1.0" encoding="UTF-8"?>
<svg id="Layer_2" data-name="Layer 2" xmlns="http://www.w3.org/2000/svg" xmlns:xlink="http://www.w3.org/1999/xlink" viewBox="0 0 1216.93 985.91">
  <defs>
    <style>
      .cls-1 {
        fill: url(#linear-gradient-10);
        stroke: url(#linear-gradient-11);
      }

      .cls-1, .cls-2, .cls-3, .cls-4, .cls-5, .cls-6, .cls-7, .cls-8 {
        stroke-miterlimit: 10;
        stroke-width: 12px;
      }

      .cls-2 {
        fill: url(#linear-gradient-16);
        stroke: url(#linear-gradient-17);
      }

      .cls-3 {
        fill: url(#linear-gradient-3);
        stroke: url(#linear-gradient-4);
      }

      .cls-9 {
        fill: #b0bec5;
      }

      .cls-10 {
        fill: url(#linear-gradient-8);
      }

      .cls-4 {
        fill: none;
        stroke: url(#linear-gradient-9);
      }

      .cls-11 {
        fill: url(#linear-gradient-7);
      }

      .cls-12 {
        fill: #eee;
      }

      .cls-5 {
        fill: url(#linear-gradient-5);
        stroke: url(#linear-gradient-6);
      }

      .cls-6 {
        fill: url(#linear-gradient-14);
        stroke: url(#linear-gradient-15);
      }

      .cls-7 {
        fill: url(#linear-gradient-12);
        stroke: url(#linear-gradient-13);
      }

      .cls-13 {
        fill: #fafafa;
      }

      .cls-8 {
        fill: url(#linear-gradient);
        stroke: url(#linear-gradient-2);
      }
    </style>
    <linearGradient id="linear-gradient" x1="315.96" y1="211.57" x2="873.53" y2="211.57" gradientTransform="translate(0 1003.49) scale(1 -1)" gradientUnits="userSpaceOnUse">
      <stop offset=".2" stop-color="#232323"/>
      <stop offset=".4" stop-color="#212121"/>
      <stop offset="1" stop-color="#424242"/>
    </linearGradient>
    <linearGradient id="linear-gradient-2" x1="309.96" y1="211.57" x2="879.53" y2="211.57" gradientTransform="translate(0 1003.49) scale(1 -1)" gradientUnits="userSpaceOnUse">
      <stop offset="0" stop-color="#b0bec5"/>
      <stop offset="1" stop-color="#b0bec5"/>
    </linearGradient>
    <linearGradient id="linear-gradient-3" x1="292.18" y1="719.28" x2="897.46" y2="719.28" xlink:href="#linear-gradient"/>
    <linearGradient id="linear-gradient-4" x1="286.18" y1="719.28" x2="903.46" y2="719.28" xlink:href="#linear-gradient-2"/>
    <linearGradient id="linear-gradient-5" x1="292.13" y1="95.19" x2="897.33" y2="95.19" xlink:href="#linear-gradient"/>
    <linearGradient id="linear-gradient-6" x1="286.13" y1="95.19" x2="903.33" y2="95.19" xlink:href="#linear-gradient-2"/>
    <linearGradient id="linear-gradient-7" x1="722.88" y1="-257.67" x2="722.88" y2="-238.37" gradientTransform="translate(-4027.92 1747.02) scale(6.2)" gradientUnits="userSpaceOnUse">
      <stop offset="0" stop-color="#424242"/>
      <stop offset="1" stop-color="#212121"/>
    </linearGradient>
    <linearGradient id="linear-gradient-8" x1="755.57" x2="755.57" xlink:href="#linear-gradient-7"/>
    <linearGradient id="linear-gradient-9" x1="1159.13" y1="585.79" x2="1160.43" y2="585.79" xlink:href="#linear-gradient-2"/>
    <linearGradient id="linear-gradient-10" x1="6" y1="621.61" x2="1210.93" y2="621.61" xlink:href="#linear-gradient"/>
    <linearGradient id="linear-gradient-11" x1="0" y1="621.61" x2="1216.93" y2="621.61" xlink:href="#linear-gradient-2"/>
    <linearGradient id="linear-gradient-12" x1="6" y1="534.31" x2="1210.93" y2="534.31" xlink:href="#linear-gradient"/>
    <linearGradient id="linear-gradient-13" x1="0" y1="534.31" x2="1216.93" y2="534.31" xlink:href="#linear-gradient-2"/>
    <linearGradient id="linear-gradient-14" x1="6" y1="442.91" x2="1210.93" y2="442.91" xlink:href="#linear-gradient"/>
    <linearGradient id="linear-gradient-15" x1="0" y1="442.91" x2="1216.93" y2="442.91" xlink:href="#linear-gradient-2"/>
    <linearGradient id="linear-gradient-16" x1="6" y1="343.31" x2="1210.93" y2="343.31" xlink:href="#linear-gradient"/>
    <linearGradient id="linear-gradient-17" x1="0" y1="343.31" x2="1216.93" y2="343.31" xlink:href="#linear-gradient-2"/>
  </defs>
  <g id="Layer_1-2" data-name="Layer 1">
    <g id="Capa_1" data-name="Capa 1">
      <g>
        <path class="cls-8" d="M337.63,804.3c4.6,1.6,112.3,37.3,258.4,37.3s3.3,0,4.9,0c168-.9,248.6-30.4,252-31.7,16.4-6.2,24.7-24.4,18.6-40.9-6.1-16.5-24.4-24.8-40.9-18.8-.7.3-75,26.8-230,27.7h-4.5c-134.6,0-236.3-33.4-238.1-34-16.7-5.6-34.8,3.4-40.4,20-5.6,16.7,3.3,34.8,20,40.4h0Z"/>
        <path class="cls-3" d="M293.09,286.91c2.01,21.46,16.37,41.86,36.62,49.13,35.19,13.85,107.9,28.92,193.67,32.75,20.23,1.07,40.88,1.61,59.72,1.69,18.07.09,34.78.02,53.73-.59,10.57-.33,24-.92,35.54-1.6,90.35-5.43,145.85-18.75,183.43-31.59,5.94-2.11,10.9-4.08,16.62-8.12,13.09-9.2,22.15-24.96,23.91-41.1,1.65-11.81,1.21-26.7.51-37.15-.39-4.95-.71-10.06-2.9-14.41-18.92-21.09-86.04-27.65-184.3-34.84-110.56-6.01-244.04-4.39-348.73,12.14-31.95,5.4-53.96,11.91-62.24,19.06-2.62,2.36-3.68,5.96-4.58,9.13-1.03,3.95-1.22,9.22-1.54,14.04-.4,8.54-.73,21.57.52,31.25l.02.2Z"/>
        <path class="cls-5" d="M897.33,895.4v-37.4c0-17.6-12.7-25.4-29.2-19.2-42.5,16-132,41.5-273.4,43.8-141.3-2.3-230.9-27.9-273.4-43.8-16.5-6.2-29.2,1.6-29.2,19.2v37.4c0,17.6,12,39.7,28.3,46.4,38.5,15.7,121,38.5,274.3,38.1,150.4.4,234.5-22.9,274-38.6,16.4-6.5,28.6-28.2,28.6-45.8v-.1Z"/>
        <path class="cls-13" d="M493.33,295.6c-52.4,0-95-64.8-95-144.4S440.93,6.8,493.33,6.8s95,64.8,95,144.4-42.6,144.4-95,144.4h0Z"/>
        <path class="cls-9" d="M493.33,13.6c22.5,0,44.1,13.6,60.7,38.3,17.7,26.3,27.5,61.6,27.5,99.3s-9.8,73-27.5,99.3c-16.6,24.7-38.2,38.3-60.7,38.3s-44.1-13.6-60.7-38.3c-17.8-26.3-27.5-61.6-27.5-99.3s9.8-73,27.5-99.3c16.6-24.7,38.1-38.3,60.7-38.3M493.33,0C437.13,0,391.53,67.7,391.53,151.2s45.6,151.2,101.8,151.2,101.8-67.7,101.8-151.2S549.53,0,493.33,0h0Z"/>
        <path class="cls-11" d="M464.43,137.1c-9.2-8.6-7.1-25.7,4.6-38.2.6-.6,1.2-1.3,1.9-1.8-5.2-3-11-4.6-17-4.6-24.4,0-44.2,26.9-44.2,60.1s19.8,60.1,44.2,60.1,44.2-26.9,44.2-60.1-.6-11.7-1.8-17.2c-11,7.9-24.1,9-31.9,1.7h0Z"/>
        <g>
          <ellipse class="cls-12" cx="696.03" cy="151.2" rx="101.8" ry="151.2"/>
          <path class="cls-13" d="M696.03,295.6c-52.4,0-95-64.8-95-144.4S643.63,6.8,696.03,6.8s95,64.8,95,144.4-42.6,144.4-95,144.4h0Z"/>
          <path class="cls-9" d="M696.03,13.6c22.5,0,44.1,13.6,60.7,38.3,17.7,26.3,27.5,61.6,27.5,99.3s-9.8,73-27.5,99.3c-16.6,24.7-38.2,38.3-60.7,38.3s-44.1-13.6-60.7-38.3c-17.7-26.3-27.5-61.6-27.5-99.3s9.8-73,27.5-99.3c16.6-24.7,38.2-38.3,60.7-38.3M696.03,0C639.83,0,594.23,67.7,594.23,151.2s45.6,151.2,101.8,151.2,101.8-67.7,101.8-151.2S752.23,0,696.03,0h0Z"/>
          <path class="cls-10" d="M667.13,137.1c-9.2-8.6-7.1-25.7,4.6-38.2.6-.6,1.2-1.3,1.9-1.8-5.2-3-11-4.6-17-4.6-24.4,0-44.2,26.9-44.2,60.1s19.8,60.1,44.2,60.1,44.2-26.9,44.2-60.1-.6-11.7-1.8-17.2c-11,7.9-24.1,9-31.9,1.7h0Z"/>
        </g>
        <path class="cls-4" d="M1159.13,417.7h1.3"/>
        <path class="cls-1" d="M114.83,522.9c-5.5,0-11.1-.5-16.7-1.5-12.9-2.4-27.9-5.8-42-15-13.3-8.7-24-21.1-34.9-40.3-14.4-25.5-18.8-56.1-12.3-86.4,6.4-29.6,22.2-55.2,44.6-71.9,15.8-11.8,36.3-20.2,56.2-23.1,26.7-3.8,48.6,2.9,61.6,18.9,23.8,29.4,10.7,82-30.6,122.3-10.9,10.6-28.3,10.4-38.9-.5-10.6-10.9-10.4-28.3.5-38.9,20.8-20.4,26.5-40.2,26-47.6-2.6-.5-7.6-.7-15.2,1-9.6,2.1-19.5,6.6-26.7,11.9-25,18.6-33.1,59.3-17.4,87.1,13.3,23.5,20.9,24.9,39.2,28.4,16.7,3.1,39.8-7.2,55.9-17.9,3.6-2.4,18.4-14.3,30.2-23.9,39.3-31.7,54.9-43.7,63.8-48,33-15.7,48.6-13.2,97.3-2.1l1.2.3,1.2.4c119.9,38.9,333.4,51.5,460.2,8.5,23.3-8.8,44.4-22.5,70.5-45.9l.3-.3c37.1-34.2,79.1-72.9,133.8-88,47.7-14,118.2-17.2,160.7,19.9l.4.4c25.4,23.1,33.9,59.5,21.7,92.8-11.8,32.3-39.9,53.1-73.1,54.3-20.6.8-57.4-9.9-73-31.8-12-17-11.9-40.3.4-59.3,11.5-17.7,30.9-26.9,49.6-23.2,14.9,2.9,24.7,17.3,21.8,32.2-2.2,11.2-10.8,19.4-21.3,21.7,6.2,2.9,15.2,5.7,20.5,5.5,15.3-.6,21.5-13,23.5-18.3,3.5-9.6,3.6-23.3-6.9-33-23-19.8-72.1-19.1-108.9-8.3h-.5c-41.9,11.7-77.2,44.2-111.4,75.7l-.7.7c-31.7,28.4-58.2,45.4-88.5,56.7l-.7.3c-64.8,22.1-153.8,32.7-250.7,29.8-88.7-2.6-177.3-16.3-243.4-37.5-42.7-9.7-44.1-9.3-59.9-1.7-7.2,4.1-37.1,28.3-53.3,41.3-18.3,14.7-28.9,23.2-34.3,26.9-16.6,11-47,27.6-79.8,27.6v-.2Z"/>
        <path class="cls-7" d="M114.83,610.2c-5.5,0-11.1-.5-16.7-1.5-12.9-2.4-27.9-5.8-42-15-13.3-8.7-24-21.1-34.9-40.3-14.4-25.5-18.8-56.1-12.3-86.4,6.4-29.6,22.2-55.2,44.6-71.9,15.8-11.8,36.3-20.2,56.2-23.1,26.7-3.8,48.6,2.9,61.6,18.9,23.8,29.4,10.7,82-30.6,122.3-10.9,10.6-28.3,10.4-38.9-.5-10.6-10.9-10.4-28.3.5-38.9,20.8-20.4,26.5-40.2,26-47.6-2.6-.5-7.6-.7-15.2,1-9.6,2.1-19.5,6.6-26.7,11.9-25,18.6-33.1,59.3-17.4,87.1,13.3,23.5,20.9,24.9,39.2,28.4,16.7,3.1,39.8-7.2,55.9-17.9,3.6-2.4,18.4-14.3,30.2-23.9,39.3-31.7,54.9-43.7,63.8-48,33-15.7,48.6-13.2,97.3-2.1l1.2.3,1.2.4c119.9,38.9,333.4,51.5,460.2,8.5,23.3-8.8,44.4-22.5,70.5-45.9l.3-.3c37.1-34.2,79.1-72.9,133.8-88,47.7-14,118.2-17.2,160.7,19.9l.4.4c25.4,23.1,33.9,59.5,21.7,92.8-11.8,32.3-39.9,53.1-73.1,54.3-20.6.8-57.4-9.9-73-31.8-12-17-11.9-40.3.4-59.3,11.5-17.7,30.9-26.9,49.6-23.2,14.9,2.9,24.7,17.3,21.8,32.2-2.2,11.2-10.8,19.4-21.3,21.7,6.2,2.9,15.2,5.7,20.5,5.5,15.3-.6,21.5-13,23.5-18.3,3.5-9.6,3.6-23.3-6.9-33-23-19.8-72.1-19.1-108.9-8.3h-.5c-41.9,11.7-77.2,44.2-111.4,75.7l-.7.7c-31.7,28.4-58.2,45.4-88.5,56.7l-.7.3c-64.8,22.1-153.8,32.7-250.7,29.8-88.7-2.6-177.3-16.3-243.4-37.5-42.7-9.7-44.1-9.3-59.9-1.7-7.2,4.1-37.1,28.3-53.3,41.3-18.3,14.7-28.9,23.2-34.3,26.9-16.6,11-47,27.6-79.8,27.6v-.2Z"/>
        <path class="cls-6" d="M114.83,701.6c-5.5,0-11.1-.5-16.7-1.5-12.9-2.4-27.9-5.8-42-15-13.3-8.7-24-21.1-34.9-40.3-14.4-25.5-18.8-56.1-12.3-86.4,6.4-29.6,22.2-55.2,44.6-71.9,15.8-11.8,36.3-20.2,56.2-23.1,26.7-3.8,48.6,2.9,61.6,18.9,23.8,29.4,10.7,82-30.6,122.3-10.9,10.6-28.3,10.4-38.9-.5-10.6-10.9-10.4-28.3.5-38.9,20.8-20.4,26.5-40.2,26-47.6-2.6-.5-7.6-.7-15.2,1-9.6,2.1-19.5,6.6-26.7,11.9-25,18.6-33.1,59.3-17.4,87.1,13.3,23.5,20.9,24.9,39.2,28.4,16.7,3.1,39.8-7.2,55.9-17.9,3.6-2.4,18.4-14.3,30.2-23.9,39.3-31.7,54.9-43.7,63.8-48,33-15.7,48.6-13.2,97.3-2.1l1.2.3,1.2.4c119.9,38.9,333.4,51.5,460.2,8.5,23.3-8.8,44.4-22.5,70.5-45.9l.3-.3c37.1-34.2,79.1-72.9,133.8-88,47.7-14,118.2-17.2,160.7,19.9l.4.4c25.4,23.1,33.9,59.5,21.7,92.8-11.8,32.3-39.9,53.1-73.1,54.3-20.6.8-57.4-9.9-73-31.8-12-17-11.9-40.3.4-59.3,11.5-17.7,30.9-26.9,49.6-23.2,14.9,2.9,24.7,17.3,21.8,32.2-2.2,11.2-10.8,19.4-21.3,21.7,6.2,2.9,15.2,5.7,20.5,5.5,15.3-.6,21.5-13,23.5-18.3,3.5-9.6,3.6-23.3-6.9-33-23-19.8-72.1-19.1-108.9-8.3h-.5c-41.9,11.7-77.2,44.2-111.4,75.7l-.7.7c-31.7,28.4-58.2,45.4-88.5,56.7l-.7.3c-64.8,22.1-153.8,32.7-250.7,29.8-88.7-2.6-177.3-16.3-243.4-37.5-42.7-9.7-44.1-9.3-59.9-1.7-7.2,4.1-37.1,28.3-53.3,41.3-18.3,14.7-28.9,23.2-34.3,26.9-16.6,11-47,27.6-79.8,27.6v-.2Z"/>
        <path class="cls-2" d="M114.83,801.2c-5.5,0-11.1-.5-16.7-1.5-12.9-2.4-27.9-5.8-42-15-13.3-8.7-24-21.1-34.9-40.3-14.4-25.5-18.8-56.1-12.3-86.4,6.4-29.6,22.2-55.2,44.6-71.9,15.8-11.8,36.3-20.2,56.2-23.1,26.7-3.8,48.6,2.9,61.6,18.9,23.8,29.4,10.7,82-30.6,122.3-10.9,10.6-28.3,10.4-38.9-.5-10.6-10.9-10.4-28.3.5-38.9,20.8-20.4,26.5-40.2,26-47.6-2.6-.5-7.6-.7-15.2,1-9.6,2.1-19.5,6.6-26.7,11.9-25,18.6-33.1,59.3-17.4,87.1,13.3,23.5,20.9,24.9,39.2,28.4,16.7,3.1,39.8-7.2,55.9-17.9,3.6-2.4,18.4-14.3,30.2-23.9,39.3-31.7,54.9-43.7,63.8-48,33-15.7,48.6-13.2,97.3-2.1l1.2.3,1.2.4c119.9,38.9,333.4,51.5,460.2,8.5,23.3-8.8,44.4-22.5,70.5-45.9l.3-.3c37.1-34.2,79.1-72.9,133.8-88,47.7-14,118.2-17.2,160.7,19.9l.4.4c25.4,23.1,33.9,59.5,21.7,92.8-11.8,32.3-39.9,53.1-73.1,54.3-20.6.8-57.4-9.9-73-31.8-12-17-11.9-40.3.4-59.3,11.5-17.7,30.9-26.9,49.6-23.2,14.9,2.9,24.7,17.3,21.8,32.2-2.2,11.2-10.8,19.4-21.3,21.7,6.2,2.9,15.2,5.7,20.5,5.5,15.3-.6,21.5-13,23.5-18.3,3.5-9.6,3.6-23.3-6.9-33-23-19.8-72.1-19.1-108.9-8.3h-.5c-41.9,11.7-77.2,44.2-111.4,75.7l-.7.7c-31.7,28.4-58.2,45.4-88.5,56.7l-.7.3c-64.8,22.1-153.8,32.7-250.7,29.8-88.7-2.6-177.3-16.3-243.4-37.5-42.7-9.7-44.1-9.3-59.9-1.7-7.2,4.1-37.1,28.3-53.3,41.3-18.3,14.7-28.9,23.2-34.3,26.9-16.6,11-47,27.6-79.8,27.6v-.2Z"/>
      </g>
    </g>
  </g>
</svg>